<svg xmlns="http://www.w3.org/2000/svg" width="112.455" height="36.786" viewBox="0 0 112.455 36.786"><g transform="translate(-220 -5954.559)"><path d="M5.067,0H107.389a5.066,5.066,0,0,1,5.066,5.066V31.719a5.066,5.066,0,0,1-5.066,5.066H5.065A5.065,5.065,0,0,1,0,31.72V5.067A5.067,5.067,0,0,1,5.067,0Z" transform="translate(220 5954.559)" fill="#657283"/><path d="M1523.986,904.525a18.2,18.2,0,0,1-1.646,3.074c-1.069,1.629-2.577,3.656-4.445,3.674-1.659.015-2.086-1.08-4.338-1.069s-2.723,1.087-4.383,1.072c-1.867-.018-3.3-1.849-4.365-3.477-2.991-4.553-3.3-9.9-1.459-12.736a6.618,6.618,0,0,1,5.323-3.2c1.98,0,3.224,1.085,4.861,1.085,1.588,0,2.555-1.087,4.844-1.087a6.46,6.46,0,0,1,4.869,2.571A5.572,5.572,0,0,0,1523.986,904.525Z" transform="translate(-1274.661 5074.349)" fill="#fff"/><path d="M1516.841,889.93a5.56,5.56,0,0,0,1.234-4.115,6,6,0,0,0-3.876,2.084,5.157,5.157,0,0,0-1.266,4.014A5.067,5.067,0,0,0,1516.841,889.93Z" transform="translate(-1274.861 5074.463)" fill="#fff"/><path d="M1533.607,895.055l-4.284,12.611h1.961l1.279-3.872h4.149l1.315,3.872h2.016l-4.3-12.611Zm1.017,2.073c.144.563.3,1.148.5,1.78l1.154,3.343h-3.285l1.138-3.365C1534.306,898.34,1534.469,897.75,1534.624,897.128Z" transform="translate(-1275.17 5074.289)" fill="#fff"/><path d="M1545.8,898.387a3.569,3.569,0,0,0-3.033,1.455l-.077-1.254h-1.745l.01.16c.052.781.073,1.642.073,2.876v9.72h1.908v-4.535a3.352,3.352,0,0,0,2.608,1.121,3.929,3.929,0,0,0,2.891-1.229,5.212,5.212,0,0,0,1.277-3.67,5.078,5.078,0,0,0-1.108-3.351A3.631,3.631,0,0,0,1545.8,898.387Zm-.475,1.58c1.7,0,2.462,1.575,2.462,3.137,0,2.013-.971,3.265-2.534,3.265a2.313,2.313,0,0,1-2.248-1.771,2.433,2.433,0,0,1-.068-.617v-1.535a2.886,2.886,0,0,1,.061-.471c.009-.052.02-.1.027-.155A2.416,2.416,0,0,1,1545.33,899.967Z" transform="translate(-1275.389 5074.227)" fill="#fff"/><path d="M1555.818,898.387a3.572,3.572,0,0,0-3.034,1.455l-.076-1.254h-1.745l.01.16c.052.782.074,1.642.074,2.876v9.72h1.907v-4.535a3.353,3.353,0,0,0,2.608,1.121,3.936,3.936,0,0,0,2.892-1.229,5.217,5.217,0,0,0,1.276-3.67,5.074,5.074,0,0,0-1.11-3.351A3.629,3.629,0,0,0,1555.818,898.387Zm-.475,1.58c1.7,0,2.462,1.575,2.462,3.137,0,2.013-.972,3.265-2.534,3.265a2.314,2.314,0,0,1-2.248-1.771,2.428,2.428,0,0,1-.068-.617v-1.535a2.87,2.87,0,0,1,.061-.472c.01-.052.019-.1.027-.154A2.416,2.416,0,0,1,1555.343,899.967Z" transform="translate(-1275.577 5074.227)" fill="#fff"/><path d="M1568.368,900.395c-1.78-.69-2.351-1.232-2.351-2.234,0-.844.67-1.695,2.169-1.695a4.336,4.336,0,0,1,2.24.562l.162.1.538-1.593-.106-.062a5.531,5.531,0,0,0-2.779-.623c-2.433,0-4.132,1.435-4.132,3.492,0,1.658,1.064,2.817,3.349,3.647,1.619.605,2.222,1.226,2.222,2.288,0,1.2-.93,1.95-2.426,1.95a5.222,5.222,0,0,1-2.749-.78l-.166-.106-.512,1.629.094.063a6.536,6.536,0,0,0,3.224.829c3.279,0,4.442-2,4.442-3.712C1571.586,902.386,1570.654,901.3,1568.368,900.395Z" transform="translate(-1275.818 5074.293)" fill="#fff"/><path d="M1575.173,896.377l-1.871.588v1.586h-1.37v1.525h1.37v4.671a3.572,3.572,0,0,0,.66,2.421,2.45,2.45,0,0,0,1.847.725,4.513,4.513,0,0,0,1.475-.228l.107-.038-.091-1.528-.184.056a2.857,2.857,0,0,1-.887.1c-.74,0-1.056-.468-1.056-1.566v-4.616h2.3V898.55h-2.3Z" transform="translate(-1275.97 5074.264)" fill="#fff"/><path d="M1582.313,898.387c-2.67,0-4.534,1.993-4.534,4.844a4.354,4.354,0,0,0,4.388,4.7h.018a4.5,4.5,0,0,0,4.534-4.863,4.821,4.821,0,0,0-1.217-3.374A4.243,4.243,0,0,0,1582.313,898.387Zm-.055,1.506c1.716,0,2.5,1.673,2.5,3.228,0,1.913-1.066,3.3-2.534,3.3h-.019c-1.447,0-2.5-1.366-2.5-3.246C1579.706,901.542,1580.495,899.893,1582.258,899.893Z" transform="translate(-1276.08 5074.227)" fill="#fff"/><path d="M1592.754,898.475l-.114-.028a1.831,1.831,0,0,0-.475-.06,2.723,2.723,0,0,0-2.392,1.536l-.056-1.334h-1.712l.011.16c.051.756.073,1.6.073,2.747l-.018,6.233h1.907v-4.862a4.96,4.96,0,0,1,.053-.74,2.109,2.109,0,0,1,2.008-1.923,4.948,4.948,0,0,1,.511.032l.2.021Z" transform="translate(-1276.272 5074.227)" fill="#fff"/><path d="M1597.134,898.368c-2.539,0-4.314,2.03-4.314,4.936a4.266,4.266,0,0,0,4.5,4.607,7.328,7.328,0,0,0,3.021-.579l.115-.052-.367-1.422-.159.064a5.9,5.9,0,0,1-2.39.428,2.653,2.653,0,0,1-2.858-2.766l6.159.019.025-.123a4.29,4.29,0,0,0,.057-.8C1600.919,900.693,1599.928,898.368,1597.134,898.368Zm-.128,1.452a1.884,1.884,0,0,1,1.4.534,2.724,2.724,0,0,1,.657,1.776h-4.352A2.436,2.436,0,0,1,1597.007,899.82Z" transform="translate(-1276.363 5074.227)" fill="#fff"/><path d="M1529.323,886.274a13.9,13.9,0,0,1,1.83-.124,4.084,4.084,0,0,1,2.687.735,2.613,2.613,0,0,1,.944,2.152,3.023,3.023,0,0,1-.954,2.32,4.426,4.426,0,0,1-2.943.859,13.079,13.079,0,0,1-1.564-.072Zm.865,5.287a6.194,6.194,0,0,0,.866.035c1.83.009,2.823-.921,2.823-2.532.011-1.426-.875-2.3-2.686-2.3a5.5,5.5,0,0,0-1,.08Z" transform="translate(-1275.17 5074.457)" fill="#fff"/><path d="M1537.972,892.291a2.152,2.152,0,0,1-2.283-2.2,2.212,2.212,0,0,1,2.362-2.276,2.134,2.134,0,0,1,2.292,2.2,2.219,2.219,0,0,1-2.361,2.285Zm.03-.585a1.525,1.525,0,0,0,1.446-1.674,1.456,1.456,0,1,0-1.456,1.674Z" transform="translate(-1275.29 5074.425)" fill="#fff"/><path d="M1541.811,887.909l.64,2.17c.127.478.256.929.344,1.372h.029c.108-.434.266-.894.423-1.363l.778-2.179h.728l.738,2.143c.177.505.315.966.423,1.4h.029a11.878,11.878,0,0,1,.364-1.39l.679-2.152h.856l-1.536,4.286h-.787l-.728-2.045a14.308,14.308,0,0,1-.424-1.417h-.019a11.954,11.954,0,0,1-.434,1.426l-.767,2.036h-.787l-1.437-4.286Z" transform="translate(-1275.388 5074.423)" fill="#fff"/><path d="M1548.858,889.068c0-.452-.011-.807-.04-1.161h.768l.049.7h.02a1.8,1.8,0,0,1,1.574-.8,1.63,1.63,0,0,1,1.683,1.824v2.559h-.865v-2.471c0-.691-.286-1.275-1.1-1.275a1.236,1.236,0,0,0-1.161.8,1.053,1.053,0,0,0-.059.363v2.585h-.865Z" transform="translate(-1275.536 5074.425)" fill="#fff"/><path d="M1554.424,885.87h.865v6.287h-.865Z" transform="translate(-1275.642 5074.461)" fill="#fff"/><path d="M1558.7,892.291a2.152,2.152,0,0,1-2.282-2.2,2.211,2.211,0,0,1,2.361-2.276,2.134,2.134,0,0,1,2.293,2.2,2.219,2.219,0,0,1-2.362,2.285Zm.03-.585a1.525,1.525,0,0,0,1.446-1.674,1.456,1.456,0,1,0-1.456,1.674Z" transform="translate(-1275.679 5074.425)" fill="#fff"/><path d="M1565.625,891.167a6.5,6.5,0,0,0,.069,1.026h-.777l-.08-.54h-.028a1.831,1.831,0,0,1-1.456.638,1.3,1.3,0,0,1-1.456-1.232c0-1.036,1.022-1.6,2.862-1.593v-.089c0-.353-.108-1-1.082-.991a2.49,2.49,0,0,0-1.249.318l-.2-.522a3.361,3.361,0,0,1,1.575-.372,1.593,1.593,0,0,1,1.82,1.753Zm-.846-1.161c-.945-.018-2.017.134-2.017.966a.724.724,0,0,0,.807.744,1.2,1.2,0,0,0,1.171-.717.708.708,0,0,0,.04-.248Z" transform="translate(-1275.782 5074.425)" fill="#fff"/><path d="M1571.216,885.87v5.18c0,.381.011.814.04,1.107h-.777l-.039-.744h-.02a1.782,1.782,0,0,1-1.614.842,2.044,2.044,0,0,1-2.047-2.179,2.137,2.137,0,0,1,2.135-2.3,1.639,1.639,0,0,1,1.438.647h.019v-2.55Zm-.866,3.745a1.315,1.315,0,0,0-.039-.337,1.251,1.251,0,0,0-1.249-.894,1.467,1.467,0,0,0-1.428,1.648,1.422,1.422,0,0,0,1.408,1.593,1.288,1.288,0,0,0,1.269-.93,1.219,1.219,0,0,0,.039-.337Z" transform="translate(-1275.874 5074.461)" fill="#fff"/><path d="M1576.823,892.291a2.152,2.152,0,0,1-2.282-2.2,2.211,2.211,0,0,1,2.361-2.276,2.134,2.134,0,0,1,2.293,2.2,2.219,2.219,0,0,1-2.361,2.285Zm.03-.585a1.524,1.524,0,0,0,1.445-1.674,1.455,1.455,0,1,0-1.456,1.674Z" transform="translate(-1276.02 5074.425)" fill="#fff"/><path d="M1580.4,889.068c0-.452-.01-.807-.039-1.161h.767l.049.7h.02a1.8,1.8,0,0,1,1.574-.8,1.63,1.63,0,0,1,1.683,1.824v2.559h-.866v-2.471c0-.691-.286-1.275-1.1-1.275a1.237,1.237,0,0,0-1.161.8,1.056,1.056,0,0,0-.059.363v2.585h-.865Z" transform="translate(-1276.129 5074.425)" fill="#fff"/><path d="M1589.122,886.863v1.026h1.24v.594h-1.24v2.311c0,.532.168.833.65.833a1.8,1.8,0,0,0,.5-.053l.039.593a2.6,2.6,0,0,1-.767.107,1.312,1.312,0,0,1-.935-.328,1.556,1.556,0,0,1-.334-1.125v-2.337h-.738v-.594h.738V887.1Z" transform="translate(-1276.264 5074.443)" fill="#fff"/><path d="M1591.409,885.87h.865v2.674h.021a1.469,1.469,0,0,1,.62-.549,1.828,1.828,0,0,1,.885-.222,1.629,1.629,0,0,1,1.662,1.833v2.55h-.865V889.7c0-.7-.286-1.276-1.1-1.276a1.243,1.243,0,0,0-1.161.779.844.844,0,0,0-.06.372v2.585h-.865Z" transform="translate(-1276.336 5074.461)" fill="#fff"/><path d="M1597.46,890.183a1.451,1.451,0,0,0,1.624,1.488,3.617,3.617,0,0,0,1.319-.213l.157.549a4.26,4.26,0,0,1-1.594.275,2.112,2.112,0,0,1-2.342-2.161,2.182,2.182,0,0,1,2.243-2.321,1.875,1.875,0,0,1,1.958,2.019,1.825,1.825,0,0,1-.028.372Zm2.529-.558a1.15,1.15,0,0,0-1.191-1.266,1.348,1.348,0,0,0-1.328,1.266Z" transform="translate(-1276.434 5074.425)" fill="#fff"/></g></svg>