<svg xmlns="http://www.w3.org/2000/svg" xmlns:xlink="http://www.w3.org/1999/xlink" width="112.455" height="36.786" viewBox="0 0 112.455 36.786"><defs><linearGradient id="a" x1="0.5" x2="0.5" y2="1" gradientUnits="objectBoundingBox"><stop offset="0" stop-color="#0067a2"/><stop offset="0.403" stop-color="#3d91a8"/><stop offset="0.805" stop-color="#74b7ae"/><stop offset="1" stop-color="#8ac6b1"/></linearGradient><linearGradient id="b" y1="0.5" x2="1" y2="0.5" gradientUnits="objectBoundingBox"><stop offset="0" stop-color="#50b09b"/><stop offset="1" stop-color="#e9e486"/></linearGradient><linearGradient id="c" x1="0.5" x2="0.5" y2="1" gradientUnits="objectBoundingBox"><stop offset="0" stop-color="#dc1b24"/><stop offset="0.228" stop-color="#c1203b"/><stop offset="0.748" stop-color="#8a2b6c"/><stop offset="1" stop-color="#753080"/></linearGradient><linearGradient id="d" x1="0.5" x2="0.5" y2="1" gradientUnits="objectBoundingBox"><stop offset="0" stop-color="#eb7165"/><stop offset="0.003" stop-color="#eb7164"/><stop offset="0.675" stop-color="#f9a85e"/><stop offset="1" stop-color="#ffbe5c"/></linearGradient></defs><g transform="translate(-341.904 -5954.559)"><path d="M5.067,0H107.389a5.066,5.066,0,0,1,5.066,5.066V31.719a5.066,5.066,0,0,1-5.066,5.066H5.065A5.065,5.065,0,0,1,0,31.72V5.067A5.067,5.067,0,0,1,5.067,0Z" transform="translate(341.904 5954.559)" fill="#161615"/><path d="M1622.128,887.2v24.911l12.562-12.455Z" transform="translate(-1271.789 5074.437)" fill="url(#a)"/><path d="M1638.064,896.312l-5.071-2.928-10.865-6.273v.091l12.562,12.456Z" transform="translate(-1271.789 5074.438)" fill="url(#b)"/><path d="M1622.128,912.353v.091l10.865-6.273,5.071-2.927-3.374-3.345Z" transform="translate(-1271.789 5074.198)" fill="url(#c)"/><path d="M1638.3,896.488l-3.374,3.346,3.374,3.345,5.795-3.345Z" transform="translate(-1272.03 5074.262)" fill="url(#d)"/><path d="M1702.66,904.717a3.136,3.136,0,0,1-1.291-.261,2.431,2.431,0,0,1-.982-.8h-.079a9.706,9.706,0,0,1,.079,1.2v2.981h-1.1v-10.5h.892l.152.991h.053a2.545,2.545,0,0,1,.985-.859,2.988,2.988,0,0,1,1.288-.265,2.677,2.677,0,0,1,2.224.985,5.242,5.242,0,0,1-.013,5.536A2.683,2.683,0,0,1,1702.66,904.717Zm-.158-6.577a1.946,1.946,0,0,0-1.606.614,3.165,3.165,0,0,0-.509,1.958v.244a3.622,3.622,0,0,0,.509,2.184,1.936,1.936,0,0,0,1.633.657,1.7,1.7,0,0,0,1.471-.759,3.608,3.608,0,0,0,.532-2.1,3.471,3.471,0,0,0-.532-2.078A1.75,1.75,0,0,0,1702.5,898.14Z" transform="translate(-1273.239 5074.249)" fill="#f9f9f9"/><path d="M1708.359,904.529h-1.1V894.244h1.1Z" transform="translate(-1273.388 5074.304)" fill="#f9f9f9"/><path d="M1714.713,904.585l-.218-1.031h-.053a3.053,3.053,0,0,1-1.081.922,3.289,3.289,0,0,1-1.344.241,2.423,2.423,0,0,1-1.69-.555,2.026,2.026,0,0,1-.612-1.58q0-2.194,3.51-2.3l1.23-.04v-.449a1.833,1.833,0,0,0-.368-1.259,1.505,1.505,0,0,0-1.173-.406,4.782,4.782,0,0,0-2.05.554l-.336-.839a5.265,5.265,0,0,1,2.452-.621,2.759,2.759,0,0,1,1.92.575,2.4,2.4,0,0,1,.625,1.844v4.944Zm-2.479-.773a2.23,2.23,0,0,0,1.609-.561,2.083,2.083,0,0,0,.586-1.574v-.654l-1.1.046a3.982,3.982,0,0,0-1.887.407,1.225,1.225,0,0,0-.579,1.121,1.128,1.128,0,0,0,.36.9A1.491,1.491,0,0,0,1712.235,903.812Z" transform="translate(-1273.435 5074.249)" fill="#f9f9f9"/><path d="M1716.287,897.343h1.176l1.587,4.131a15.821,15.821,0,0,1,.648,2.043h.053q.086-.337.36-1.154t1.795-5.02h1.177l-3.114,8.249a4.106,4.106,0,0,1-1.081,1.736,2.3,2.3,0,0,1-1.516.511,4.434,4.434,0,0,1-.992-.112v-.879a3.826,3.826,0,0,0,.813.079,1.675,1.675,0,0,0,1.612-1.269l.4-1.031Z" transform="translate(-1273.558 5074.246)" fill="#f9f9f9"/><path d="M1681.9,898.018a2.468,2.468,0,0,1-.2,4.2,1.068,1.068,0,0,0-.425.744.833.833,0,0,0,.394.652l.547.423a2.639,2.639,0,0,1,1.272,2.122c0,1.425-1.379,2.863-3.985,2.863-2.2,0-3.258-1.045-3.258-2.167a2.18,2.18,0,0,1,1.167-1.849,6.526,6.526,0,0,1,2.894-.7,1.59,1.59,0,0,1-.454-1.029,1.366,1.366,0,0,1,.151-.592c-.167.016-.334.03-.485.03a2.4,2.4,0,0,1-2.515-2.378,2.724,2.724,0,0,1,.969-2.031,4.133,4.133,0,0,1,2.713-.833h3.12l-.969.545Zm-1.077,6.728a2.355,2.355,0,0,0-.347-.016,6.047,6.047,0,0,0-1.591.243,1.7,1.7,0,0,0-1.3,1.56c0,1.075,1.046,1.85,2.667,1.85,1.454,0,2.227-.7,2.227-1.638C1682.478,905.972,1681.977,905.565,1680.825,904.747Zm.441-2.88a1.534,1.534,0,0,0,.378-1.106c0-1.091-.651-2.788-1.908-2.788a1.418,1.418,0,0,0-1.062.5,1.753,1.753,0,0,0-.334,1.121c0,1.016.592,2.7,1.895,2.7A1.552,1.552,0,0,0,1681.266,901.867Z" transform="translate(-1272.806 5074.244)" fill="#f9f9f9"/><path d="M1672.217,904.5a3.57,3.57,0,0,1-3.691-3.572,3.75,3.75,0,0,1,3.919-3.676,3.537,3.537,0,0,1,3.615,3.571A3.7,3.7,0,0,1,1672.217,904.5Zm1.891-1.225a2.734,2.734,0,0,0,.454-1.68c0-1.331-.635-3.873-2.511-3.873a2.11,2.11,0,0,0-1.362.515,2.291,2.291,0,0,0-.7,1.847c0,1.5.742,3.961,2.573,3.961A1.933,1.933,0,0,0,1674.108,903.275Z" transform="translate(-1272.661 5074.248)" fill="#f9f9f9"/><path d="M1663.86,904.5a3.57,3.57,0,0,1-3.691-3.572,3.75,3.75,0,0,1,3.919-3.676,3.537,3.537,0,0,1,3.615,3.571A3.7,3.7,0,0,1,1663.86,904.5Zm1.892-1.225a2.74,2.74,0,0,0,.453-1.68c0-1.331-.636-3.873-2.512-3.873a2.109,2.109,0,0,0-1.361.515,2.29,2.29,0,0,0-.7,1.847c0,1.5.741,3.961,2.572,3.961A1.935,1.935,0,0,0,1665.752,903.275Z" transform="translate(-1272.504 5074.248)" fill="#f9f9f9"/><path d="M1658.79,904.2l-2.175.5a16.108,16.108,0,0,1-2.509.257,5.4,5.4,0,0,1-5.8-5.506c0-2.95,2.266-5.687,6.145-5.687a8.753,8.753,0,0,1,2.326.319,5.917,5.917,0,0,1,2.008.943l-1.263,1.2-.532.122.38-.608a4.345,4.345,0,0,0-3.255-1.43,4.2,4.2,0,0,0-4.213,4.488,5.379,5.379,0,0,0,5.384,5.551,4.537,4.537,0,0,0,1.932-.381V901.52l-2.3.122,1.216-.656h3.225l-.4.381a.356.356,0,0,0-.152.243c-.016.136-.03.578-.03.73Z" transform="translate(-1272.281 5074.313)" fill="#f9f9f9"/><path d="M1686.848,903.753c-.5-.046-.607-.136-.607-.731v-8.608c0-.033.005-.067.008-.1.062-.532.213-.623.685-.9h-2.175l-1.141.548h1.163v9.392c0,.3-.06.349-.41.806h2.692l.563-.334C1687.365,903.8,1687.106,903.784,1686.848,903.753Z" transform="translate(-1272.944 5074.32)" fill="#f9f9f9"/><path d="M1693.112,903.965c-.166.091-.332.2-.5.272a3.518,3.518,0,0,1-1.467.288,3.228,3.228,0,0,1-2.009-.59,3.909,3.909,0,0,1-1.54-3.187,3.423,3.423,0,0,1,3.459-3.489,2.935,2.935,0,0,1,1.556.424,2.5,2.5,0,0,1,1.056,1.494l-3.548,1.435-1.164.09c.377,1.918,1.676,3.035,3.111,3.035a3.9,3.9,0,0,0,1.843-.527Zm-1.419-4.5c.286-.1.438-.2.438-.407a1.5,1.5,0,0,0-1.5-1.3,1.86,1.86,0,0,0-1.737,2.1c0,.256.031.528.046.8Z" transform="translate(-1273.019 5074.248)" fill="#f9f9f9"/><path d="M1694.694,897.362v1h-.121v-1h-.331v-.1h.781v.1Z" transform="translate(-1273.144 5074.248)" fill="#f9f9f9"/><path d="M1696.072,898.358v-1.006h-.006l-.307,1.006h-.094l-.31-1.006h0v1.006h-.11v-1.1h.188l.281.889h0l.276-.889h.191v1.1Z" transform="translate(-1273.163 5074.248)" fill="#f9f9f9"/><path d="M1651.333,890.686h-.756a4.994,4.994,0,0,0-.215-.883h-1.091a4.53,4.53,0,0,0-.222.883h-.71q0-.091.552-1.511a11.988,11.988,0,0,0,.551-1.564h.892a13.007,13.007,0,0,0,.5,1.541A13.528,13.528,0,0,1,1651.333,890.686Zm-1.091-1.334a13.257,13.257,0,0,1-.4-1.318h-.038q0,.093-.418,1.318Z" transform="translate(-1272.282 5074.429)" fill="#fbfcfc"/><path d="M1654.444,890.686h-.583a5.788,5.788,0,0,0-.65-1.022,5.683,5.683,0,0,1-.775-1.334h-.037a8.344,8.344,0,0,1,.059.935c0,.389.011.864.033,1.422h-.581q.035-.732.035-1.608t-.035-1.467h.7a4.436,4.436,0,0,0,.583,1,5.922,5.922,0,0,1,.713,1.259h.035a9.017,9.017,0,0,1-.057-.945c0-.426-.011-.864-.032-1.313h.59q-.032.586-.032,1.467T1654.444,890.686Z" transform="translate(-1272.349 5074.429)" fill="#fbfcfc"/><path d="M1657.932,889.042a1.743,1.743,0,0,1-.43,1.172,1.5,1.5,0,0,1-1.2.5q-.349,0-.964-.028.031-.714.031-1.608,0-.86-.031-1.467h.414c.068,0,.168,0,.3-.007s.221-.007.262-.007a1.591,1.591,0,0,1,1.236.425A1.468,1.468,0,0,1,1657.932,889.042Zm-.645.1a1.135,1.135,0,0,0-.265-.763,1,1,0,0,0-.808-.311,2.393,2.393,0,0,0-.279.022q.023.473.024.987,0,.565.023,1.12a1.563,1.563,0,0,0,.307.03.893.893,0,0,0,.753-.315A1.22,1.22,0,0,0,1657.287,889.143Z" transform="translate(-1272.413 5074.429)" fill="#fbfcfc"/><path d="M1661.151,890.686h-.7a4.661,4.661,0,0,0-.421-1.032.551.551,0,0,0-.472-.2c-.091,0-.179,0-.263,0,0,.4.008.813.022,1.226h-.656q.031-.714.031-1.608,0-.86-.031-1.467h.408c.048,0,.146,0,.3-.007s.29-.007.417-.007q1.085,0,1.084.742a.832.832,0,0,1-.618.819v.035a.736.736,0,0,1,.418.372A8.388,8.388,0,0,1,1661.151,890.686Zm-.886-2.172c0-.314-.2-.47-.6-.47a2.1,2.1,0,0,0-.392.032q.025.366.025.955c.086,0,.16,0,.22,0Q1660.265,889.035,1660.265,888.513Z" transform="translate(-1272.476 5074.429)" fill="#fbfcfc"/><path d="M1664.591,889.09a1.7,1.7,0,0,1-.443,1.2,1.441,1.441,0,0,1-1.1.477,1.386,1.386,0,0,1-1.044-.439,1.541,1.541,0,0,1-.421-1.114,1.7,1.7,0,0,1,.444-1.2,1.439,1.439,0,0,1,1.1-.477,1.389,1.389,0,0,1,1.044.437A1.545,1.545,0,0,1,1664.591,889.09Zm-.651.069a1.219,1.219,0,0,0-.253-.8.778.778,0,0,0-.623-.307.72.72,0,0,0-.586.31,1.39,1.39,0,0,0,.013,1.581.78.78,0,0,0,.623.308.72.72,0,0,0,.586-.31A1.24,1.24,0,0,0,1663.94,889.159Z" transform="translate(-1272.531 5074.43)" fill="#fbfcfc"/><path d="M1666,890.686h-.668q.031-.732.031-1.608t-.031-1.467H1666q-.031.6-.03,1.467Q1665.967,889.968,1666,890.686Z" transform="translate(-1272.601 5074.429)" fill="#fbfcfc"/><path d="M1669.449,889.042a1.744,1.744,0,0,1-.43,1.172,1.5,1.5,0,0,1-1.2.5c-.234,0-.554-.01-.964-.028q.031-.714.031-1.608,0-.86-.031-1.467h.414c.068,0,.168,0,.3-.007s.221-.007.262-.007a1.591,1.591,0,0,1,1.236.425A1.468,1.468,0,0,1,1669.449,889.042Zm-.645.1a1.135,1.135,0,0,0-.265-.763,1,1,0,0,0-.807-.311,2.4,2.4,0,0,0-.279.022q.024.473.024.987,0,.565.023,1.12a1.564,1.564,0,0,0,.307.03.893.893,0,0,0,.753-.315A1.22,1.22,0,0,0,1668.8,889.143Z" transform="translate(-1272.63 5074.429)" fill="#fbfcfc"/><path d="M1674.071,890.686h-.757a4.969,4.969,0,0,0-.215-.883h-1.091a4.535,4.535,0,0,0-.222.883h-.711q0-.091.551-1.511a11.815,11.815,0,0,0,.551-1.564h.893a13.088,13.088,0,0,0,.5,1.541A13.459,13.459,0,0,1,1674.071,890.686Zm-1.091-1.334a13.218,13.218,0,0,1-.4-1.318h-.038q0,.093-.418,1.318Z" transform="translate(-1272.709 5074.429)" fill="#fbfcfc"/><path d="M1676.892,888.416a.92.92,0,0,1-.419.834,1.863,1.863,0,0,1-1.028.269,1.553,1.553,0,0,1-.159,0q0,.444.026,1.172h-.663q.029-.683.031-1.608,0-.851-.031-1.467h.41c.059,0,.171,0,.336-.007s.309-.007.43-.007a1.352,1.352,0,0,1,.758.2A.687.687,0,0,1,1676.892,888.416Zm-.609.13q0-.5-.67-.505a1.892,1.892,0,0,0-.354.035c.017.3.026.635.026,1.012.039,0,.085,0,.137,0Q1676.282,889.091,1676.283,888.546Z" transform="translate(-1272.776 5074.429)" fill="#fbfcfc"/><path d="M1679.779,888.416a.92.92,0,0,1-.419.834,1.863,1.863,0,0,1-1.028.269,1.556,1.556,0,0,1-.159,0q0,.444.026,1.172h-.664q.031-.683.031-1.608,0-.851-.031-1.467h.411c.059,0,.171,0,.336-.007s.309-.007.43-.007a1.352,1.352,0,0,1,.758.2A.687.687,0,0,1,1679.779,888.416Zm-.609.13q0-.5-.67-.505a1.912,1.912,0,0,0-.355.035c.018.3.026.635.026,1.012.039,0,.085,0,.137,0Q1679.169,889.091,1679.17,888.546Z" transform="translate(-1272.83 5074.429)" fill="#fbfcfc"/><path d="M1684.484,889.09a1.7,1.7,0,0,1-.444,1.2,1.442,1.442,0,0,1-1.1.477,1.389,1.389,0,0,1-1.044-.439,1.544,1.544,0,0,1-.42-1.114,1.7,1.7,0,0,1,.443-1.2,1.442,1.442,0,0,1,1.1-.477,1.391,1.391,0,0,1,1.044.437A1.545,1.545,0,0,1,1684.484,889.09Zm-.652.069a1.219,1.219,0,0,0-.253-.8.779.779,0,0,0-.623-.307.718.718,0,0,0-.586.31,1.385,1.385,0,0,0,.013,1.581.78.78,0,0,0,.622.308.717.717,0,0,0,.586-.31A1.235,1.235,0,0,0,1683.833,889.159Z" transform="translate(-1272.904 5074.43)" fill="#fbfcfc"/><path d="M1687.756,890.686h-.584a5.71,5.71,0,0,0-.65-1.022,5.632,5.632,0,0,1-.774-1.334h-.038a8.32,8.32,0,0,1,.059.935c0,.389.012.864.033,1.422h-.581q.035-.732.035-1.608t-.035-1.467h.7a4.433,4.433,0,0,0,.583,1,5.881,5.881,0,0,1,.714,1.259h.035a9.028,9.028,0,0,1-.056-.945c0-.426-.012-.864-.033-1.313h.591q-.034.586-.033,1.467T1687.756,890.686Z" transform="translate(-1272.975 5074.429)" fill="#fbfcfc"/></g></svg>