<svg xmlns="http://www.w3.org/2000/svg" width="20.506" height="22.132" viewBox="0 0 20.506 22.132"><g transform="translate(392.511 -232.005)"><path d="M-389.358,254.137a.751.751,0,0,1-.426-.132.75.75,0,0,1-.313-.746l.668-3.863a9.5,9.5,0,0,1-3.082-7.158,10.251,10.251,0,0,1,10.239-10.233h.009a10.327,10.327,0,0,1,8.055,3.888,10,10,0,0,1,2.2,6.416A10.263,10.263,0,0,1-382.025,252.5a10.336,10.336,0,0,1-3.407-.57h-.005l-3.539,2.1A.738.738,0,0,1-389.358,254.137Zm7.086-20.632a8.749,8.749,0,0,0-8.739,8.734,7.9,7.9,0,0,0,2.856,6.263.75.75,0,0,1,.279.72l-.466,2.69,2.433-1.445a.755.755,0,0,1,.617-.067l.331.109a8.374,8.374,0,0,0,2.9.494,8.768,8.768,0,0,0,8.552-8.716,8.5,8.5,0,0,0-1.869-5.452,8.833,8.833,0,0,0-6.887-3.33h-.01Z" fill="#fff"/><path d="M-382.13,245.423a.75.75,0,0,1-.75-.75v-1.165a.848.848,0,0,0-.563-.758,3.6,3.6,0,0,1-2.3-3.362,3.613,3.613,0,0,1,3.609-3.608,3.613,3.613,0,0,1,3.608,3.609.75.75,0,0,1-.75.75.75.75,0,0,1-.75-.75,2.111,2.111,0,0,0-2.108-2.109,2.111,2.111,0,0,0-2.109,2.108,2.1,2.1,0,0,0,1.327,1.959,2.351,2.351,0,0,1,1.532,2.141v1.185A.75.75,0,0,1-382.13,245.423Z" fill="#fff"/><path d="M-382.13,248.6a.749.749,0,0,1-.53-.22.767.767,0,0,1-.22-.53.718.718,0,0,1,.06-.29.776.776,0,0,1,.16-.24.774.774,0,0,1,1.06,0,.776.776,0,0,1,.16.24.717.717,0,0,1,.06.29.671.671,0,0,1-.06.28.716.716,0,0,1-.16.25A.749.749,0,0,1-382.13,248.6Z" fill="#fff"/></g></svg>