<svg xmlns="http://www.w3.org/2000/svg" width="125.63" height="118.515" viewBox="0 0 125.63 118.515"><g transform="translate(-71.096 -134.559)"><path d="M-2407.454-1413.516c.228-7.167-.792-14.538-4.228-20.833s-9.551-11.373-16.654-12.353c-10-1.379-19.155,5.164-28.805,8.119-16.155,4.948-34.3-.192-50.117,5.743-15.522,5.824-25.918,22.364-25.795,38.942.254,34.119,39.461,56.652,70.843,51.041C-2433.732-1347.949-2408.308-1386.6-2407.454-1413.516Z" transform="translate(2604.15 1581.449)" fill="#ffc980" opacity="0.201" style="mix-blend-mode:darken;isolation:isolate"/><path d="M251.579,387.828h-65.21a1.3,1.3,0,0,1-1.3-1.3V304.055a1.3,1.3,0,0,1,1.3-1.3h46.991a1.3,1.3,0,0,1,.92.382L252.5,321.354a1.3,1.3,0,0,1,.38.92v64.253A1.3,1.3,0,0,1,251.579,387.828Zm-63.909-2.6h62.607V322.813L232.82,305.357H187.67Z" transform="translate(-88.067 -134.754)" fill="#464646"/><path d="M237.083,323.769H218.863a1.3,1.3,0,0,1-1.3-1.3V304.055a1.3,1.3,0,0,1,2.6,0v17.11h16.918a1.3,1.3,0,0,1,0,2.6Z" transform="translate(-73.571 -134.754)" fill="#464646"/><path d="M229.493,328.965H198.039a1.3,1.3,0,1,1,0-2.6h31.454a1.3,1.3,0,1,1,0,2.6Z" transform="translate(-82.861 -124.223)" fill="#464646"/><path d="M229.493,336.657H198.039a1.3,1.3,0,0,1,0-2.6h31.454a1.3,1.3,0,0,1,0,2.6Z" transform="translate(-82.861 -120.791)" fill="#464646"/><path d="M220.479,344.349H198.039a1.3,1.3,0,1,1,0-2.6h22.439a1.3,1.3,0,1,1,0,2.6Z" transform="translate(-82.861 -117.359)" fill="#464646"/></g></svg>