<svg xmlns="http://www.w3.org/2000/svg" width="146.169" height="104.157" viewBox="0 0 146.169 104.157"><g transform="translate(-47.831 -149.764)"><path d="M-1727.977-1396.566c-2.925,22.471,13.283,44.1,33.674,53.985s44.006,10.311,66.619,8.851c9.537-.616,19.28-1.592,27.929-5.659s16.123-11.819,17.383-21.293c2.525-18.988-17.046-30.53-31.684-36.984-14.393-6.346-24.94-13.462-37.472-22.515C-1678.547-1439.7-1722.845-1435.993-1727.977-1396.566Z" transform="translate(1776.15 1581.449)" fill="#59cd54" opacity="0.201" style="mix-blend-mode:darken;isolation:isolate"/><path d="M-157.089,369.644a6.942,6.942,0,0,0-8.692-1.328,19.726,19.726,0,0,0-2.687,1.981c-6.072,5.116-12.094,10.295-18.17,15.4-.936-1.348-8.769-12.723-10.747-16.358a19.9,19.9,0,0,1-2.266-8.555l11.531-2.33c1.445-8.7-2.742-13.157-10.8-12.029-.629.088-1.247.265-1.874.369q-7.3,1.215-14.6,2.418c-8.633,1.436-17.284,2.782-25.894,4.353-5.325.97-7.264,3.531-7.473,8.844a37.926,37.926,0,0,0,5.912,21.8q4.382,7.123,8.711,14.279c3.2,5.288,6.364,10.594,9.721,16.186-1.734.5-3.054,1.015-4.424,1.264q-6.336,1.154-12.705,2.134c-3.515.535-6.035,2.419-6.828,5.813a18.684,18.684,0,0,0,.24,9.758c2.635-.437,9.511-2.707,13.953-3.769,0,.6.007,1.19.056,1.78.375,4.477,3.244,7.375,7.729,7.507a25.858,25.858,0,0,0,6.606-.736c5.423-1.271,10.791-2.772,16.189-4.147q11.8-3.006,23.615-5.961c4.616-1.151,7.922-3.8,8.345-8.661a22.3,22.3,0,0,0-4.291-15.285s-2.422-4.85-3.7-7.122c4.8-3.876,9.622-7.732,14.419-11.617,2.719-2.2,5.52-4.338,8-6.792C-154.308,375.971-154.99,372.134-157.089,369.644Zm-41.166-20.679c5.424-.855,7.888,1.42,7.858,7.572-13.7,2.288-27.539,4.526-40.9,6.756.239-3.262-.557-6.606-4.457-8.436C-235.753,354.857-207.52,350.424-198.255,348.965Zm-48.016,81.753a29.656,29.656,0,0,1-.272-3.757c.262-3.922,2.79-6.37,6.387-6.308,3.335.058,5.634,2.432,5.922,6.23.013.161.013.321.02.482C-236.945,427.894-244.521,430.492-246.271,430.719Zm26.385,2c-.346,3.968-3.582,4.564-6.082,4.419a6.43,6.43,0,0,1-5.5-4.573,9.655,9.655,0,0,1-.137-2.367c.137-3.677.013-7.282-3.468-10.691l12.1-2.124C-219.4,421.993-219.414,427.325-219.885,432.719Zm41-29.029c.921,1.826,1.57,2.888,2.012,4.029a50.955,50.955,0,0,1,2.688,7.615c1.166,5.5-.96,8.995-6.4,10.447-12.13,3.238-24.31,6.292-37.2,9.609,1.842-8.682-.3-15.81-4.682-22.672-6.6-10.335-12.763-20.95-19.129-31.437a37.012,37.012,0,0,1-4.9-16.321,11.4,11.4,0,0,1,.644-5.132,6.271,6.271,0,0,1,4.724-3.938c4.5-.875,9.194,4.14,7.363,10.314,10.627-1.461,21.47-4.055,31.565-5.058.354,6.606,5.773,14.655,7.7,17.451h0l5.556,9.051q-3.442,2.874-6.925,5.7c-5.479,4.435-7.194,10.909-10.663,16.429l.9,1.15c3.307-.9,6.61-1.809,9.925-2.68a19.141,19.141,0,0,0,7.479-4c2.159-1.79,4.348-3.543,6.528-5.309Zm1.9-11.874c-3.7,3-9.251,7.1-12.77,10.3-3.781,3.433-8.5,3.449-12.438,5.28,3.3-6.049,4-8.745,6.441-10.8q11.919-10.043,23.878-20.043c1.935,2.166,6.1,5.267,6.037,6.2C-169.392,385.635-173.184,388.734-176.99,391.816Zm17.519-14.374a41.128,41.128,0,0,1-3.487,3.1c-.777-.654-4.529-4.266-6.448-6.064q1.421-1.189,2.837-2.382a11.2,11.2,0,0,1,2.778-1.808,4.12,4.12,0,0,1,5.066,1.478C-157.43,373.605-157.894,375.712-159.47,377.442Z" transform="translate(330.91 -185.258)" fill="#464646"/><path d="M-210.429,366.876a1.3,1.3,0,0,0-1.5-1.06l-24.727,4.276a1.3,1.3,0,0,0-1.061,1.5,1.3,1.3,0,0,0,1.281,1.079,1.282,1.282,0,0,0,.223-.019l24.728-4.276A1.3,1.3,0,0,0-210.429,366.876Z" transform="translate(335.893 -176.542)" fill="#464646"/><path d="M-207.827,371.652a1.3,1.3,0,0,0-1.5-1.06l-24.728,4.276a1.3,1.3,0,0,0-1.06,1.5,1.3,1.3,0,0,0,1.281,1.082,1.3,1.3,0,0,0,.223-.02l24.727-4.277A1.3,1.3,0,0,0-207.827,371.652Z" transform="translate(337.054 -174.412)" fill="#464646"/><path d="M-216.109,377.132l-14.287,2.5a1.3,1.3,0,0,0-1.057,1.507,1.3,1.3,0,0,0,1.28,1.079,1.353,1.353,0,0,0,.227-.02l14.287-2.5a1.3,1.3,0,0,0,1.057-1.507A1.307,1.307,0,0,0-216.109,377.132Z" transform="translate(338.688 -171.494)" fill="#464646"/></g></svg>