<svg xmlns="http://www.w3.org/2000/svg" width="124.249" height="126.707" viewBox="0 0 124.249 126.707"><g transform="translate(-52.329 -136.793)"><path d="M-1903.632-1351.573c6.44-2.995,12.972-6.048,18.345-10.692s9.531-11.172,9.711-18.272c.206-8.126-10.679-16.459-15.915-22.677-11.608-13.783-14.832-32.969-37.667-39.294-17.367-4.81-36.279-1.33-51.495,8.325-10.583,6.715-19.253,21.423-19.168,33.956.07,10.235,5.606,22.768,12.718,30.13,16.787,17.378,43.439,24.5,66.657,17.809" transform="translate(2052.15 1581.449)" fill="#00afa1" opacity="0.201" style="mix-blend-mode:darken;isolation:isolate"/><path d="M-157.011,260.394q0-19.652,0-39.3c0-.354-.016-.71.017-1.061A1.217,1.217,0,0,1-155.8,218.8a8.346,8.346,0,0,1,1.06-.022l49.675.01q7.2,0,14.4-.01c.314,0,.63-.016.943.009a1.3,1.3,0,0,1,1.4,1.4c.016.275.006.551.006.826,0,13.849.02,50.735-.039,51.121a1.12,1.12,0,0,1-1.234,1.012,1.121,1.121,0,0,1-1.238-1.009c-.064-.424-.042-35.736-.042-48.758,0-2.013-.043-2.056-2.033-2.056q-23.952,0-47.9,0h-11.68c-.275,0-.551-.014-.826.006-.855.064-1.09.309-1.129,1.171-.013.275,0,.549,0,.826v74.24c0,1.907,0,1.909,1.894,1.909,8.26,0,33.306-.02,33.656.019a1.146,1.146,0,0,1,1.14,1.245A1.152,1.152,0,0,1-118.884,302c-.311.038-26.853,0-35.9.032-2.166.009-2.24-.506-2.237-2.217Q-157,280.105-157.011,260.394Z" transform="translate(249.02 -52.99)" fill="#464646"/><path d="M-99.042,259.481c-.077.531-.172,1.511-.37,2.47a2.24,2.24,0,0,0,.644,2.152c.626.652,1.274,1.29,1.85,1.985a3.691,3.691,0,0,1,0,5.322c-.552.664-1.181,1.265-1.79,1.878a2.306,2.306,0,0,0-.7,2.243,19.375,19.375,0,0,1,.372,3.038,3.344,3.344,0,0,1-2.908,3.81c-.38.1-.781.113-1.154.226a.8.8,0,0,0-.59,1.183c.211.591.477,1.164.726,1.741q2.349,5.475,4.7,10.945a5.607,5.607,0,0,1,.3.769,1.262,1.262,0,0,1-1.666,1.628c-.943-.272-1.865-.617-2.8-.93-.447-.149-.892-.307-1.345-.44-.947-.282-1.124-.23-1.675.58-.884,1.3-1.748,2.616-2.62,3.925-.11.163-.21.335-.331.487a1.307,1.307,0,0,1-2.346-.327c-.124-.288-.2-.6-.3-.9-.5-1.494-4.84-10.646-5.332-12.14a5.7,5.7,0,0,1-.278-1.022,1.223,1.223,0,0,1,.876-1.365,1.281,1.281,0,0,1,1.507.628,4.162,4.162,0,0,1,.247.661c.139.409,4.51,9.758,5.018,9.848.584.1.814-.375,1.085-.753.205-.288.4-.586.591-.882.174-.262.335-.532.513-.791.821-1.2,1.1-1.294,2.45-.859.337.108.677.21,1.008.334a.848.848,0,0,0,.982-.135.855.855,0,0,0,.1-1.079c-.936-2.166-1.86-4.337-2.788-6.506a13.451,13.451,0,0,0-.564-1.3c-.4-.714-1-.717-1.463-.023-.217.327-.369.7-.584,1.024a3.241,3.241,0,0,1-4.279,1.41c-.441-.163-.858-.39-1.283-.594-.742-.354-1.027-.268-1.414.458-.111.207-.194.43-.286.648q-2.735,6.4-5.469,12.8c-.078.181-.145.367-.233.542a1.333,1.333,0,0,1-2.432.23c-.33-.441-.617-.913-.924-1.371-.675-1.015-1.338-2.039-2.029-3.043-.493-.716-.658-.771-1.484-.508-1.235.392-2.461.816-3.693,1.22a4.714,4.714,0,0,1-.907.25,1.2,1.2,0,0,1-1.372-1.255,3,3,0,0,1,.265-1.014q2.616-6.13,5.252-12.251c.03-.072.074-.139.1-.211.476-1.121.288-1.455-.9-1.724a9.479,9.479,0,0,1-1.8-.535,2.807,2.807,0,0,1-1.766-2.583c-.025-.9.069-1.8.134-2.7a7.546,7.546,0,0,1,.181-1.164,2.255,2.255,0,0,0-.7-2.249c-.39-.388-.784-.774-1.155-1.18a11.875,11.875,0,0,1-.985-1.174,3.537,3.537,0,0,1,.093-4.479,9.059,9.059,0,0,1,1.5-1.654,3.356,3.356,0,0,0,1.154-3.686,12.362,12.362,0,0,1-.241-2.457,3.153,3.153,0,0,1,2.71-3.465,23.04,23.04,0,0,1,2.549-.466,2.345,2.345,0,0,0,1.981-1.458,22.065,22.065,0,0,1,1.046-2.114,6.664,6.664,0,0,1,1.122-1.5,2.666,2.666,0,0,1,2.726-.7,13.344,13.344,0,0,1,2.37,1.017c2.082,1.147,2.13,1.151,4.208.022a13.549,13.549,0,0,1,2.254-.993A2.835,2.835,0,0,1-108.1,250a11.111,11.111,0,0,1,1.257,2.121c1.155,2.39,1.141,2.4,3.741,2.779.35.052.7.11,1.041.192C-99.788,255.646-98.968,256.714-99.042,259.481Zm-30.743,18.7c-.065,1.374.12,1.6,1.381,1.795.427.067.85.174,1.278.2a5.014,5.014,0,0,1,4.619,3.446c.191.473.428.927.658,1.382a3.959,3.959,0,0,0,.376.6.835.835,0,0,0,1.135.3,11.256,11.256,0,0,0,1.361-.7,5.447,5.447,0,0,1,6.69.077,9.337,9.337,0,0,0,1.261.633.818.818,0,0,0,1.124-.328,9.77,9.77,0,0,0,.571-1.03c.357-.7.683-1.416,1.059-2.105a3.85,3.85,0,0,1,2.636-2c.46-.1.924-.179,1.387-.268.616-.117,1.245-.189,1.845-.362.714-.2.9-.464.839-1.209a20.4,20.4,0,0,0-.351-2.565,4.856,4.856,0,0,1,1.479-4.719c.5-.5,1.011-.993,1.471-1.53.764-.888.762-1.241-.014-2.143-.487-.564-1.028-1.083-1.556-1.611a4.781,4.781,0,0,1-1.4-4.523,21.515,21.515,0,0,0,.344-2.684c.049-.827-.145-1.054-.947-1.234-.726-.162-1.466-.27-2.207-.364a4.619,4.619,0,0,1-3.889-2.852c-.24-.538-.5-1.069-.756-1.6a5.707,5.707,0,0,0-.466-.82c-.4-.555-.68-.646-1.31-.357a17.816,17.816,0,0,0-1.764.946,4.951,4.951,0,0,1-5.459.042c-.539-.321-1.09-.628-1.656-.9-.847-.406-1.171-.321-1.633.5-.4.717-.749,1.471-1.092,2.22a4.631,4.631,0,0,1-3.909,2.826,17.405,17.405,0,0,0-2.312.431c-.756.2-.937.515-.849,1.3.1.9.208,1.8.376,2.683a4.746,4.746,0,0,1-1.491,4.49c-.529.525-1.064,1.051-1.544,1.621-.69.818-.681,1.15,0,1.951.354.419.762.794,1.137,1.2.349.373.706.74,1.022,1.14a4.235,4.235,0,0,1,.918,3.42C-129.567,276.4-129.674,277.34-129.784,278.177Zm7.45,20.208a2.893,2.893,0,0,0,.571-.382,2.439,2.439,0,0,0,.348-.609q1.7-3.946,3.4-7.9a2.228,2.228,0,0,0,.184-.557.753.753,0,0,0-.931-.878c-.341.077-.661.249-1,.356a3.1,3.1,0,0,1-3.738-1.193c-.3-.411-.515-.879-.785-1.312-.476-.763-1.069-.752-1.513.028a7.018,7.018,0,0,0-.349.748q-1.171,2.766-2.337,5.533c-.244.578-.532,1.142-.726,1.738a.757.757,0,0,0,.94,1.035c.457-.1.9-.289,1.343-.432,1.219-.389,1.54-.281,2.262.785.529.781,1.028,1.581,1.578,2.347A4.907,4.907,0,0,0-122.334,298.385Z" transform="translate(258.577 -39.593)" fill="#464646"/><path d="M-152.742,258.455v-24.9c0-.119,0-.236,0-.354.016-1.479.156-1.666,1.664-1.835A7.2,7.2,0,0,0-145.8,228.4a7.131,7.131,0,0,0,1.312-3.614c.14-1.463.335-1.666,1.816-1.666q11.683-.009,23.363,0,6.2,0,12.389,0c.314,0,.631-.016.943.01a1.246,1.246,0,0,1,1.3,1.251,11.158,11.158,0,0,0,.24,1.743,6.83,6.83,0,0,0,5.706,5.132c.347.062.7.09,1.05.14a1.27,1.27,0,0,1,1.274,1.4c.012.2,0,.393,0,.59,0,7.751.016,32.364-.052,32.7a1.284,1.284,0,0,1-1.372,1.041,1.235,1.235,0,0,1-1.109-1.179c-.039-.39-.023-23.266-.023-30.112,0-.275.007-.551,0-.826-.038-.949-.139-1.106-1.113-1.377a9.873,9.873,0,0,1-4.282-2.387,9.288,9.288,0,0,1-2.549-4.312c-.335-1.215-.39-1.267-1.594-1.267q-16.106-.007-32.212,0c-1.158,0-1.179.03-1.526,1.194a9.362,9.362,0,0,1-6.791,6.73c-1.108.317-1.155.376-1.155,1.562q0,23.312,0,46.622c0,1.228.056,1.277,1.244,1.62a9.366,9.366,0,0,1,6.7,6.684c.373,1.225.409,1.283,1.711,1.284,2.989.006,17.417-.01,17.726.029a1.233,1.233,0,0,1,1.128,1.161c.026.591,1.184,1.16.58,1.3-.263.062-17.761.059-21.537.054a3.222,3.222,0,0,1-.931-.088c-.714-.217-.888-.777-.915-1.472a6.791,6.791,0,0,0-2.473-5.035,6.639,6.639,0,0,0-3.954-1.649,5.116,5.116,0,0,1-.82-.077,1.191,1.191,0,0,1-.989-1.164c-.039-.43-.02-.865-.02-1.3Q-152.743,270.788-152.742,258.455Z" transform="translate(250.927 -51.055)" fill="#464646"/><path d="M-127.124,240.27q8.783,0,17.567,0a9.127,9.127,0,0,1,1.177.036,1.247,1.247,0,0,1,1.126,1.168,1.283,1.283,0,0,1-1,1.286,4.294,4.294,0,0,1-.937.054q-17.744,0-35.487,0a8.871,8.871,0,0,1-1.177-.025,1.239,1.239,0,0,1-1.153-1.377,1.139,1.139,0,0,1,1.26-1.121c2.2-.03,4.4-.025,6.6-.026Q-133.137,240.267-127.124,240.27Z" transform="translate(253.483 -43.401)" fill="#464646"/><path d="M-134.419,248.535q-5.3,0-10.6,0a5.211,5.211,0,0,1-.94-.035,1.23,1.23,0,0,1-1.054-1.343,1.154,1.154,0,0,1,1.124-1.141,7.841,7.841,0,0,1,.941-.023q10.6,0,21.2,0a8.211,8.211,0,0,1,.823.013,1.122,1.122,0,0,1,1.148,1.221,1.184,1.184,0,0,1-1.1,1.29,7.016,7.016,0,0,1-.94.02Q-129.121,248.537-134.419,248.535Z" transform="translate(253.483 -40.851)" fill="#464646"/><path d="M-129.229,233.108q4.238,0,8.476,0a6.777,6.777,0,0,1,.94.027,1.253,1.253,0,0,1,1.106,1.186,1.269,1.269,0,0,1-1.005,1.28,3.963,3.963,0,0,1-.82.048q-8.77,0-17.54,0a3.665,3.665,0,0,1-.818-.045,1.215,1.215,0,0,1-.959-1.3,1.151,1.151,0,0,1,1.086-1.173,7.562,7.562,0,0,1,.941-.025Q-133.525,233.106-129.229,233.108Z" transform="translate(256.679 -46.598)" fill="#464646"/><path d="M-139.5,259.969c-1.883,0-3.764,0-5.647,0a4.108,4.108,0,0,1-.936-.053,1.228,1.228,0,0,1-.924-1.328A1.145,1.145,0,0,1-146,257.466a5.632,5.632,0,0,1,.939-.038q5.588,0,11.177.009a5.442,5.442,0,0,1,.7.022,1.248,1.248,0,0,1,1.132,1.155,1.317,1.317,0,0,1-1.1,1.323,5.178,5.178,0,0,1-.821.02q-2.766,0-5.53,0Z" transform="translate(253.483 -35.748)" fill="#464646"/><path d="M-139.484,251.709c1.922,0,3.844-.007,5.766,0,1.086.007,1.643.432,1.672,1.229.029.814-.6,1.3-1.727,1.307q-5.766.011-11.533,0a2.8,2.8,0,0,1-.92-.123,1.162,1.162,0,0,1-.782-1.3,1.152,1.152,0,0,1,1.053-1.082,6.572,6.572,0,0,1,.94-.03Q-142.25,251.706-139.484,251.709Z" transform="translate(253.482 -38.299)" fill="#464646"/><path d="M-118.291,277.79a11.6,11.6,0,0,1-11.582-11.663A11.54,11.54,0,0,1-118.2,254.554a11.45,11.45,0,0,1,11.57,11.661A11.519,11.519,0,0,1-118.291,277.79Zm-.022-2.541a9.064,9.064,0,0,0,9.121-9.284,8.953,8.953,0,0,0-9.05-8.856,9.048,9.048,0,0,0-9.07,9.092A9.133,9.133,0,0,0-118.313,275.249Z" transform="translate(261.13 -37.029)" fill="#464646"/></g></svg>