<svg xmlns="http://www.w3.org/2000/svg" width="119.34" height="107.95" viewBox="0 0 119.34 107.95"><g transform="translate(-60.679 -139)"><path d="M-2515.5-1060.018c-6.765,1.115-13.617,3.4-18.5,8.206-6.028,5.933-8.152,14.751-9.025,23.164-1.835,17.662,1.742,37.6,15.8,48.459,7.682,5.934,17.527,8.366,27.19,9.293,15.526,1.491,32.372-1,44.021-11.37,13.227-11.778,16.755-38.713,5.715-53C-2464.934-1054.184-2492.245-1063.853-2515.5-1060.018Z" transform="translate(2604.15 1217.449)" fill="#00afa1" opacity="0.201" style="mix-blend-mode:darken;isolation:isolate"/><path d="M125.914,570.231l-7.121,4.979c.227.186.4.35.591.484q4.063,2.855,8.133,5.7a4.838,4.838,0,0,1,.464.336,1.193,1.193,0,0,1,.242,1.7,1.218,1.218,0,0,1-1.692.321c-.648-.4-1.264-.859-1.89-1.3q-4.226-2.957-8.444-5.923a2.527,2.527,0,0,1-.791-.794,1.278,1.278,0,0,1,.578-1.643c1.061-.759,2.136-1.5,3.2-2.249l6.811-4.76c.156-.108.312-.221.477-.317a1.266,1.266,0,0,1,2,.943,4.953,4.953,0,0,1,.017.762v5.42a5.427,5.427,0,0,0,.771.056,37.309,37.309,0,0,0,34.505-30.708,35.346,35.346,0,0,0,.477-9.034,37.009,37.009,0,0,0-48.861-32.5,37.691,37.691,0,0,0-13.227,7.807c-3.262,2.962-5.726,6.061-6.936,10.344-1.6,5.538-2.055,9.62-1.762,11.329-.106.231.13,1.317,0,1.534-.321.541-1.249.2-1.784,0-.636-.243.616-.82-.728-1.534a40.725,40.725,0,0,1,1.424-10.337,26.7,26.7,0,0,1,8.972-14.025c.072-.062.152-.116.294-.223-.246-.4-.464-.778-.7-1.141-.659-1.015-1.326-2.023-1.988-3.037a4.116,4.116,0,0,1-.343-.571,1.268,1.268,0,0,1,.406-1.617c.351-.272.739-.5,1.112-.74q1.922-1.252,3.844-2.5c.266-.174.531-.351.81-.5a1.208,1.208,0,0,1,1.815.414c.335.463.63.956.943,1.436.642.985,1.286,1.97,1.978,3.031a40.365,40.365,0,0,1,12.9-3.877,4.838,4.838,0,0,0,.059-.51c0-.985,0-1.968,0-3.012-.3-.03-.544-.049-.785-.081a1.212,1.212,0,0,1-1.179-1.255c-.022-.348-.006-.7-.006-1.051,0-1.975,0-3.949,0-5.925,0-1.16.456-1.641,1.6-1.646q5.113-.017,10.225,0c1.095,0,1.56.487,1.563,1.579.009,2.2.006,4.4,0,6.594,0,1.306-.3,1.615-1.6,1.716a2.155,2.155,0,0,0-.315.081v3.5a40.51,40.51,0,0,1,12.9,3.894c.412-.633.794-1.215,1.174-1.8.557-.853,1.1-1.716,1.672-2.558.594-.876,1.138-1.009,2.016-.454q2.744,1.737,5.453,3.529a1.3,1.3,0,0,1,.425,2.038c-.92,1.45-1.865,2.885-2.831,4.376.178.182.34.369.522.529a39.488,39.488,0,0,1,12.217,19.663,39.656,39.656,0,0,1-7.875,35.51,39.241,39.241,0,0,1-22.211,13.434,36.45,36.45,0,0,1-7.862.846c-1.206,0-1.664-.45-1.676-1.669-.009-1.179,0-2.357,0-3.536Zm5.317-78.828a17.783,17.783,0,0,0,.056-4.8c-1.341,0-2.7-.009-4.059,0-1.384.012-2.771-.061-4.139.035a21.491,21.491,0,0,0,.064,4.735c.116.01.239.03.363.032Q127.38,491.405,131.231,491.4Zm-26.109,7.861c-1.238.858-2.48,1.531-3.625,2.425l2.126,3.271,3.63-2.409Zm44.17.012-2.133,3.267,3.647,2.412c.7-1.127,1.45-2.166,2.114-3.326Zm-19.917-5.319H125.1v3.273h4.278v-3.273Z" transform="translate(13.154 -345.012)" fill="#464646"/><path d="M99.338,562.616c-7.17-.1-12.7-2.406-17.213-7.022a21.838,21.838,0,0,1-6.2-12.536,22.522,22.522,0,0,1,7.012-20.276A22.159,22.159,0,0,1,95,516.853a22.911,22.911,0,0,1,14.348,2.315,6.858,6.858,0,0,1,.827.473,1.279,1.279,0,0,1,.425,1.68,1.185,1.185,0,0,1-1.638.489,26.468,26.468,0,0,0-4.11-1.78,20.5,20.5,0,0,0-16.442,37.3,19.987,19.987,0,0,0,11.823,2.7,20.508,20.508,0,0,0,18.529-16.378,21.4,21.4,0,0,0-.273-9.462,1.929,1.929,0,0,1-.023-1.012,1.169,1.169,0,0,1,1.08-.813,1.19,1.19,0,0,1,1.21.764,9.868,9.868,0,0,1,.424,1.563,22.741,22.741,0,0,1-4.453,19.158,22.167,22.167,0,0,1-13.738,8.319C101.557,562.443,100.091,562.528,99.338,562.616Z" transform="translate(6.335 -330.499)" fill="#464646"/><path d="M115.516,518.606a5.855,5.855,0,0,1,7.337.106c2.04,1.591,2.562,4.051,1.557,7.15q2.718,2.219,5.459,4.457,6.885,5.612,13.773,11.223a1.577,1.577,0,0,1,.788,1.33,1.2,1.2,0,0,1-1.682,1.108,3.043,3.043,0,0,1-.707-.477q-9.475-7.727-18.948-15.457c-.1-.078-.2-.14-.312-.214-2.508,1.582-4.985,1.7-7.361-.181-1.63-1.29-2.824-3.693-1.52-7.089-.866-.709-1.75-1.43-2.632-2.155-.615-.5-1.234-1.006-1.837-1.526a1.16,1.16,0,0,1-.351-1.3,1.261,1.261,0,0,1,.959-.85,1.452,1.452,0,0,1,1.294.464c.818.659,1.625,1.332,2.44,2C114.339,517.65,114.906,518.11,115.516,518.606Zm3.727,1.326a3.223,3.223,0,0,0-3.371,3.161,3.282,3.282,0,0,0,3.239,3.411,3.376,3.376,0,0,0,3.336-3.233A3.3,3.3,0,0,0,119.243,519.932Z" transform="translate(21.211 -331.325)" fill="#464646"/><path d="M143.227,528.953a25.413,25.413,0,0,1-2.1,10.409,2.839,2.839,0,0,1-.354.668,1.173,1.173,0,0,1-1.452.362,1.147,1.147,0,0,1-.729-1.3,3.433,3.433,0,0,1,.268-.81,24.376,24.376,0,0,0-16.251-32.939,21.815,21.815,0,0,0-5.466-.768,4.347,4.347,0,0,1-1.129-.129,1.214,1.214,0,0,1,.039-2.338,2.826,2.826,0,0,1,.939-.1,28.649,28.649,0,0,1,6.4.933q14.989,4.5,19.119,19.6A20.8,20.8,0,0,1,143.227,528.953Z" transform="translate(23.945 -336.989)" fill="#464646"/><path d="M92.6,543.484c1.294-1.333,2.516-2.586,3.731-3.842q5.176-5.356,10.347-10.714,3.447-3.575,6.885-7.154a4.5,4.5,0,0,1,.629-.581,1.309,1.309,0,0,1,1.663.147,1.218,1.218,0,0,1,.033,1.65,5.575,5.575,0,0,1-.454.489q-6.206,6.421-12.409,12.839-4.544,4.7-9.08,9.414c-1.083,1.121-1.547,1.118-2.687.023l-7.1-6.808a5.925,5.925,0,0,1-.535-.544,1.288,1.288,0,0,1,.049-1.663,1.154,1.154,0,0,1,1.637-.123c.57.457,1.086.981,1.615,1.485q2.521,2.405,5.035,4.818C92.145,543.092,92.337,543.251,92.6,543.484Z" transform="translate(9.762 -328.528)" fill="#464646"/></g></svg>