<svg xmlns="http://www.w3.org/2000/svg" width="167.484" height="112.929" viewBox="0 0 167.484 112.929"><g transform="translate(-35.173 -130.74)"><path d="M5794.859,763.932c-10.729-15.818-.557-45.38-43.24-49.911s-43.292,47.141-80.406,49.911S5616,815.49,5659.74,825.25s57.047-34.323,103.2-26.521S5805.588,779.75,5794.859,763.932Z" transform="translate(-5599 -583)" fill="#ffc980" opacity="0.203"/><path d="M284.122,100.385a6.589,6.589,0,0,0-4.39,3.316q-2.419,4.2-4.855,8.4c-.2.346-.461.657-.914,1.291v-2.454c0-4.855-.013-3.735,0-8.59a9.7,9.7,0,0,0-2.995-7.187,10.332,10.332,0,0,0-7.634-2.991q-14.987.013-29.975,0c-9.359,0-15.392-.025-24.751.01-5.057.02-6.616,1.375-7.523,6.285a48.813,48.813,0,0,0-.343,7.216c-.026,1.471-.026-1.4-.006.074.042,2.965,1.586,4.513,4.6,4.547,3.447.036,1.111.01,4.558.01h2.388v14.974c0,19.839,0,27.921,0,47.76,0,3.1.9,3.974,4.032,3.98,3.941.006,13.877,0,17.817,0,.364,0,.733-.006,1.1-.033.013,0,.023.009.038.01a14.245,14.245,0,0,0,1.686.026c10.906,0,21.814-.058,32.719.039,3.145.027,4.359-.93,4.331-4.348-.1-12.522-.032-19.261-.056-31.784a6.661,6.661,0,0,1,.9-3.586c2.44-4.108,7.476-13.021,9.855-17.165a8.918,8.918,0,0,0,.626-1.1,2.275,2.275,0,0,0,.247-.341q2.729-4.755,5.447-9.512a4.825,4.825,0,0,0,.37-.985A6.3,6.3,0,0,0,284.122,100.385Zm-71.856,6.341a3.935,3.935,0,0,1-.211.85c-4.153,0-2.441.026-6.513-.013-1.563-.014-1.884-.416-1.91-2.091-.017-1.077-.006,2.184-.01,1.1.006-.259,0-.522,0-.781.014-1.407-.048-4.022.04-5.423.211-3.365,1.411-5.306,3.767-5.306,3.2,0,4.768,1.867,4.827,6.223C212.333,106.917,212.277,101.1,212.265,106.726Zm40.874,43.566v3.946h-2.372q-12.561,0-25.122.007a10.865,10.865,0,0,0-2.091.155,1.241,1.241,0,0,0-1.1,1.341,1.343,1.343,0,0,0,1.164,1.314,10.854,10.854,0,0,0,1.893.068q12.666,0,25.331,0h1.974a3.508,3.508,0,0,1,.325.487c1.066,2.8,2.658,3.375,5.215,1.842,1.507-.9,2.973-1.877,4.493-2.758a6.046,6.046,0,0,0,2.288-2.4c1.68-3,3.42-5.978,5.147-8.957a10.94,10.94,0,0,1,.7-.946v29.736h-2.434q-15.833,0-31.665,0a15.6,15.6,0,0,0-1.686.03h0c-.37-.025-.746-.029-1.118-.029-3.729-.006-13.454,0-17.184-.01-.537,0-1.074-.084-1.731-.139V104.391c0-.7-.012-2.325-.012-3.03,0-4.337-1.583-5.725-1.907-6.176.376-.056,33.655-.123,50.542-.1a7.414,7.414,0,0,1,2.272.347,6.861,6.861,0,0,1,5,7c.043,7.035.038,8.1-.014,15.133a5.136,5.136,0,0,1-.688,2.359c-2.512,4.473-5.085,8.911-7.648,13.355-1.4,2.427-4.484,8.186-5.92,10.649H254.4c-10.2,0-30.293-.032-30.85.032a1.4,1.4,0,0,0-1.32,1.374,1.283,1.283,0,0,0,1.141,1.316c.684.126,31.665.012,31.665.012m5.375,8.182c-1.475.92-2.759,1.718-4.221,2.629a29.49,29.49,0,0,1-.043-5.079Zm24.318-40.31c-.591,1.037-1.225,2.055-1.761,3.121-.007.014-.006.029-.013.045A13.259,13.259,0,0,0,282,119.22c-4.489,7.8-11.664,20.341-16.154,28.135-1.038,1.8-2.1,3.591-3.2,5.472l-5.945-3.443c7.849-13.629,15.592-27.071,23.418-40.661,2.078,1.2,3.984,2.295,5.965,3.436C285.565,113.071,285.147,113.8,284.73,114.531Zm2.662-4.943-5.758-3.29c.714-1.9,1.793-3.194,3.831-3.2a3.092,3.092,0,0,1,2.967,1.962C289.156,106.716,288.687,108.159,287.393,109.588Z" transform="translate(-118.721 61.839)" fill="#464646"/><path d="M219.708,118.358a2.177,2.177,0,0,0,1.929,1.041,2.326,2.326,0,0,0,2.34-1.5c1.54-3.377,3.044-6.771,4.591-10.144a2.406,2.406,0,0,0-.506-2.9c-1.462-1.514-2.93-3.027-4.466-4.464-1.369-1.281-2.464-1.247-3.863.077-1.426,1.349-2.778,2.778-4.179,4.155a2.715,2.715,0,0,0-.6,3.427c1.488,3.171,2.908,6.374,4.359,9.562A5.53,5.53,0,0,0,219.708,118.358Zm1.964-15.681a38.373,38.373,0,0,1,4.231,4.13c-1.348,2.946-2.675,5.849-4.2,9.18-1.523-3.332-2.852-6.236-4.191-9.165Z" transform="translate(-112.531 65.094)" fill="#464646"/><path d="M255.8,141.7c-.56-.045-1.124-.029-1.686-.029H236.6q-9.286,0-18.572.006c-1.552,0-2.361.576-2.283,1.527.072.869.817,1.348,2.273,1.348q18.362.015,36.722,0a4.869,4.869,0,0,0,1.251-.108,1.374,1.374,0,0,0,1.095-1.57A1.294,1.294,0,0,0,255.8,141.7Z" transform="translate(-112.021 83.922)" fill="#464646"/><path d="M229.944,104.017a6.746,6.746,0,0,0,1.463.084c2.81.007,5.62,0,8.429,0,2.95,0,5.9,0,8.85,0a6.311,6.311,0,0,0,1.463-.09,1.375,1.375,0,0,0-.014-2.7,6.312,6.312,0,0,0-1.463-.085q-8.64-.007-17.279,0a6.14,6.14,0,0,0-1.462.093,1.354,1.354,0,0,0-1.1,1.365A1.282,1.282,0,0,0,229.944,104.017Z" transform="translate(-106.182 65.881)" fill="#464646"/><path d="M217.939,123.783c2.662.02,5.325.006,7.988.006v-.006c2.941,0,5.886.026,8.827-.014a1.5,1.5,0,0,0,1.6-1.346c.046-.742-.532-1.343-1.458-1.5a3.961,3.961,0,0,0-.629-.022c-5.465,0-10.93-.012-16.394.007-1.394,0-2.153.58-2.127,1.479S216.509,123.773,217.939,123.783Z" transform="translate(-112.021 74.658)" fill="#464646"/><path d="M250.341,106.91a6.145,6.145,0,0,0-1.462-.106q-8.839-.011-17.683,0a5.993,5.993,0,0,0-1.461.108,1.179,1.179,0,0,0-.9,1.26,1.153,1.153,0,0,0,.914,1.244,8.255,8.255,0,0,0,1.672.111c2.878.01,5.754,0,8.632,0s5.754.006,8.63,0a7.936,7.936,0,0,0,1.672-.116,1.152,1.152,0,0,0,.905-1.251A1.18,1.18,0,0,0,250.341,106.91Z" transform="translate(-106.181 68.369)" fill="#464646"/></g></svg>