<svg xmlns="http://www.w3.org/2000/svg" width="123.76" height="95.911" viewBox="0 0 123.76 95.911"><g transform="translate(-69.31 -164.494)"><path d="M-1589.259-1002.582c-13.547-9.044-23.321-19.885-32.726-33.2-6.014-8.51-12.5-19.108-24.246-16.877-7.233,1.373-12.78,8.867-17.564,13.388a178.479,178.479,0,0,1-27.813,22.038c-14.546,9.143-20.687,24.737-9.39,39.416,6.637,8.624,14.952,13.338,24.971,16.077,19.511,5.335,48.057,6.269,67.815,2.026C-1592.245-963.137-1572.979-983.972-1589.259-1002.582Z" transform="translate(1776.15 1217.449)" fill="#fd4d3e" opacity="0.201" style="mix-blend-mode:darken;isolation:isolate"/><path d="M172.039,151.382v42.362c0,.586.032,1.174-.013,1.757a3.115,3.115,0,0,1-2.849,3.1,10.877,10.877,0,0,1-1.753.072q-42.654,0-85.309,0a10.561,10.561,0,0,1-1.753-.077,3.118,3.118,0,0,1-2.83-3.119c-.042-.584-.012-1.173-.012-1.758V151.668c-.278-.171-.392-.3-.518-.308-2.466-.234-2.6-.356-2.6-2.756q-.013-6.043,0-12.086c.01-2.869,1.08-3.923,3.994-3.991.366-.009.733,0,1.1,0q45.294,0,90.588,0a13.745,13.745,0,0,1,2.406.117,2.921,2.921,0,0,1,2.646,3.012c.053,4.615.042,9.23.007,13.845-.01,1.239-.437,1.607-1.732,1.8C173.058,151.356,172.7,151.347,172.039,151.382Zm-91.5-.068c0,.83,0,1.4,0,1.978q.037,20.991.078,41.983c0,.058.069.12.116.171a1.323,1.323,0,0,0,.145.13h87.912c.376-2.33.321-42.475-.075-44.262h-2.132c-9.165,0-23.853.069-33.017.068-.587,0-1.176.019-1.758-.03a1.353,1.353,0,0,1-1.333-1.228,1.4,1.4,0,0,1,1.141-1.63,9.345,9.345,0,0,1,1.964-.116c10.192-.007,25.907-.074,36.1-.077.779,0,1.557-.032,2.3-.046.373-3.592.257-11.126-.166-12.616H132.539v2.25c0,6.3.012,12.6-.007,18.906-.007,2.392-.8,2.865-2.985,1.811-1.581-.764-3.147-1.562-4.756-2.361-1.591.788-3.228,1.461-4.719,2.372-1.913,1.17-3.388.294-3.063-2a12.487,12.487,0,0,0,.012-1.757q0-8.794-.007-17.587c0-.555-.1-1.109-.146-1.636H77.638a73.416,73.416,0,0,0,.087,12.665h2.338c10.118,0,24.978,0,35.1.009a10.105,10.105,0,0,1,1.967.1,1.427,1.427,0,0,1,1.189,1.6,1.342,1.342,0,0,1-1.294,1.265,16.54,16.54,0,0,1-1.757.036c-9.165,0-23.074,0-32.239,0Zm39.594-15.661v19.584c1.212-.6,2.265-1.054,3.242-1.634a2.6,2.6,0,0,1,2.873.022c.975.56,2.013,1.008,3.177,1.581V135.653Z" transform="translate(4.606 40.478)" fill="#464646"/><path d="M102.729,167.553c0,2.322,0,4.218,0,6.114a14.3,14.3,0,0,1-.023,1.536c-.1.921-.577,1.391-1.354,1.427a1.478,1.478,0,0,1-1.552-1.265,6.143,6.143,0,0,1-.075-1.307c0-5.562-.016-11.123,0-16.684.009-2.15.463-2.63,2.539-2.639a33.115,33.115,0,0,1,5.03.191,6.149,6.149,0,0,1,5.615,5.776c.185,3.264-1.56,5.657-4.857,6.658-.275.084-.557.145-1.027.265.344.486.589.9.9,1.255,1.3,1.491,2.623,2.954,3.915,4.451a3.64,3.64,0,0,1,.953,1.433,1.827,1.827,0,0,1-.434,1.529,1.966,1.966,0,0,1-1.6.094c-.435-.147-.768-.649-1.1-1.031-1.6-1.811-3.176-3.638-4.772-5.45C104.272,169.206,103.63,168.532,102.729,167.553Zm.012-9.828c0,1.31-.038,2.392.01,3.469.051,1.132-.23,2.3.259,3.439a35.655,35.655,0,0,0,3.78-.026,3.691,3.691,0,0,0,3.286-3.526,3.847,3.847,0,0,0-3.287-3.325,4.3,4.3,0,0,0-.655-.03C105.115,157.724,104.1,157.725,102.741,157.725Z" transform="translate(15.902 50.383)" fill="#464646"/><path d="M114.407,173.545c1.777,0,3.449-.009,5.119.006a5.96,5.96,0,0,1,1.518.127,1.36,1.36,0,0,1,1.112,1.439,1.481,1.481,0,0,1-1.213,1.378,2.4,2.4,0,0,1-.655.051c-2.344,0-4.688.038-7.032-.01-1.468-.029-1.968-.518-1.977-2.019q-.05-8.785,0-17.572c.01-1.664.431-2.039,2.121-2.065,2.27-.035,4.542-.009,6.813-.007a3.688,3.688,0,0,1,.658.036,1.361,1.361,0,0,1,1.293,1.476,1.309,1.309,0,0,1-1.265,1.281,14.7,14.7,0,0,1-1.536.04c-1.6,0-3.2,0-4.941,0v6.315c1.21.4,2.526.1,3.81.179a9.418,9.418,0,0,1,2.179.108,1.993,1.993,0,0,1,1.137,1.163A1.239,1.239,0,0,1,120.61,167a6.469,6.469,0,0,1-1.722.211c-1.452.027-2.905.009-4.481.009Z" transform="translate(21.049 50.444)" fill="#464646"/><path d="M124.431,157.705v6.283a9.239,9.239,0,0,0,3.19.213c.949.051,1.91-.035,2.847.084a1.362,1.362,0,0,1,1.213,1.358,1.347,1.347,0,0,1-1.106,1.439,7.367,7.367,0,0,1-1.735.129c-1.442.016-2.882.006-4.408.006v6.331c1.6,0,3.118,0,4.63,0a11.591,11.591,0,0,1,1.753.043,1.47,1.47,0,0,1,1.393,1.651,1.343,1.343,0,0,1-1.487,1.288c-1.829.023-3.657,0-5.486.023-3.861.048-3.769.059-3.751-3.7.023-4.972.006-9.943.006-14.915,0-.512-.027-1.028.02-1.536.1-1.085.412-1.474,1.487-1.5,2.558-.059,5.121-.056,7.68-.007,1.08.022,1.56.558,1.539,1.437s-.495,1.326-1.628,1.355C128.622,157.74,126.654,157.705,124.431,157.705Z" transform="translate(25.611 50.443)" fill="#464646"/><path d="M92.7,157.7v6.389H95.35c.805,0,1.612-.027,2.416.013,1.166.056,1.852.629,1.819,1.449-.033.791-.749,1.343-1.916,1.371-1.6.036-3.193.009-4.964.009-.175,2.2-.051,4.23-.09,6.251a14.92,14.92,0,0,1-.053,1.972,1.49,1.49,0,0,1-1.689,1.358,1.414,1.414,0,0,1-1.258-1.537c-.012-.366-.009-.732-.009-1.1q0-8.234,0-16.467c0-.366-.006-.732.016-1.1A1.325,1.325,0,0,1,90.99,154.9q3.952-.05,7.906.013a1.246,1.246,0,0,1,1.257,1.275,1.344,1.344,0,0,1-1.3,1.471,11.311,11.311,0,0,1-1.536.039C95.866,157.7,94.41,157.7,92.7,157.7Z" transform="translate(11.392 50.449)" fill="#464646"/></g></svg>