<svg xmlns="http://www.w3.org/2000/svg" width="134.784" height="119.132" viewBox="0 0 134.784 119.132"><g transform="translate(-40.459 -145.266)"><path d="M-2213.185-1435.265c-12.648,3.508-20.694,15.471-30.651,24.023-7.836,6.731-17.149,11.5-25.446,17.65s-15.886,14.292-17.9,24.424c-2.073,10.457,2.321,21.473,9.607,29.255s17.138,12.708,27.222,16.165a124.243,124.243,0,0,0,43.83,6.644c14.7-.432,30.734-4.563,36.068-19.784,4.358-12.434-.962-21.974-3.225-33.808-3.024-15.812,4.389-31.271-3.613-46.5C-2183.869-1429.713-2198.81-1439.251-2213.185-1435.265Z" transform="translate(2328.15 1581.449)" fill="#fd4d3e" opacity="0.201" style="mix-blend-mode:darken;isolation:isolate"/><path d="M-169.42,499.908h-.013l-43.285-.427a1.312,1.312,0,0,1-.62-.165l-18.633-10.351a1.3,1.3,0,0,1-.67-1.158,1.306,1.306,0,0,1,.706-1.137l53.851-27.732a1.3,1.3,0,0,1,1.219.014l39.786,21.7a1.3,1.3,0,0,1,.678,1.151,1.3,1.3,0,0,1-.691,1.142l-31.719,16.809A1.318,1.318,0,0,1-169.42,499.908Zm-42.942-3.027,42.624.421,29.289-15.521L-177.5,461.569l-51.076,26.3Z" transform="translate(311.64 -283.794)" fill="#464646"/><path d="M-175.166,491.833q-.056,0-.113,0a32.119,32.119,0,0,1-21.7-11.547,35.649,35.649,0,0,1-21.3,11.112,1.3,1.3,0,0,1-1.466-1.112,1.3,1.3,0,0,1,1.112-1.466,33.107,33.107,0,0,0,20.66-11.391,1.189,1.189,0,0,1,1.073-.522,1.3,1.3,0,0,1,1.05.571c.071.106,7.322,10.6,20.79,11.763a1.3,1.3,0,0,1,1.186,1.407A1.3,1.3,0,0,1-175.166,491.833Z" transform="translate(317.388 -275.719)" fill="#464646"/><path d="M-191.185,511.413a1.292,1.292,0,0,1-.632-.165l-40.152-22.313a1.3,1.3,0,0,1-.67-1.157,1.3,1.3,0,0,1,.7-1.137l7.358-3.8a1.3,1.3,0,0,1,1.754.56,1.3,1.3,0,0,1-.56,1.754l-5.2,2.685,37.413,20.792,50.676-26.853L-145.8,479a1.3,1.3,0,0,1-.551-1.756,1.3,1.3,0,0,1,1.757-.551l7.5,3.92a1.3,1.3,0,0,1,.7,1.15,1.3,1.3,0,0,1-.691,1.154l-53.485,28.341A1.3,1.3,0,0,1-191.185,511.413Z" transform="translate(311.641 -275.874)" fill="#464646"/><path d="M-191.185,517.4a1.291,1.291,0,0,1-.632-.163l-40.152-22.315a1.3,1.3,0,0,1-.67-1.134,1.3,1.3,0,0,1,.665-1.138l7.663-4.3a1.3,1.3,0,0,1,1.771.5,1.3,1.3,0,0,1-.5,1.771l-5.63,3.161,37.5,20.838,50.613-26.819-6.082-3a1.3,1.3,0,0,1-.591-1.743,1.306,1.306,0,0,1,1.743-.591l8.364,4.129a1.306,1.306,0,0,1,.724,1.148,1.3,1.3,0,0,1-.691,1.17l-53.485,28.341A1.318,1.318,0,0,1-191.185,517.4Z" transform="translate(311.641 -273.297)" fill="#464646"/><path d="M-191.185,523.589a1.293,1.293,0,0,1-.632-.165l-40.152-22.313a1.3,1.3,0,0,1-.67-1.144,1.3,1.3,0,0,1,.68-1.138l8.163-4.447a1.3,1.3,0,0,1,1.766.521,1.3,1.3,0,0,1-.521,1.766l-6.087,3.316,37.468,20.822,50.477-26.748-6.818-2.982a1.3,1.3,0,0,1-.671-1.714,1.3,1.3,0,0,1,1.715-.671l9.288,4.062a1.305,1.305,0,0,1,.779,1.144,1.305,1.305,0,0,1-.691,1.2l-53.485,28.341A1.3,1.3,0,0,1-191.185,523.589Z" transform="translate(311.641 -270.505)" fill="#464646"/></g></svg>