<svg xmlns="http://www.w3.org/2000/svg" width="157.749" height="94.816" viewBox="0 0 157.749 94.816"><g transform="translate(-47.314 -144.369)"><path d="M-2196.924-1061.331c-12.345,9.878-22.855,22.483-37.171,29.194-10.508,4.926-22.5,6.364-32.571,12.126s-17.883,18.682-12.318,28.866c3.843,7.033,12.662,9.946,20.671,9.679s15.7-3.03,23.571-4.526c16.318-3.1,33.1-.72,49.71-.461s34.344-2.078,47.024-12.8A43.2,43.2,0,0,0-2124-1040.542C-2131.784-1076.282-2171.619-1081.582-2196.924-1061.331Z" transform="translate(2328.15 1217.449)" fill="#59cd54" opacity="0.201" style="mix-blend-mode:darken;isolation:isolate"/><path d="M83.236,411.415H13.027a1.3,1.3,0,0,1-1.3-1.3V340.139a1.3,1.3,0,0,1,.83-1.215l35.105-13.6a1.3,1.3,0,0,1,1.3.21l13.611,11.223a1.3,1.3,0,0,1,.473,1V362.3a1.3,1.3,0,1,1-2.6,0V338.369L47.892,328.022,14.329,341.029v67.783H68.084V395.546a1.3,1.3,0,0,1,1.763-1.216L83.7,399.583a1.3,1.3,0,0,1,.84,1.216v9.314A1.3,1.3,0,0,1,83.236,411.415Zm-12.549-2.6H81.935V401.7l-11.248-4.266Z" transform="translate(83.98 -172.231)" fill="#464646"/><path d="M37.3,411.415a1.3,1.3,0,0,1-1.3-1.3V326.533a1.3,1.3,0,1,1,2.6,0v83.581A1.3,1.3,0,0,1,37.3,411.415Z" transform="translate(94.809 -172.231)" fill="#464646"/><path d="M61.423,388.474a1.3,1.3,0,0,1-1.3-1.3V361.844L36.589,346.391a1.3,1.3,0,1,1,1.429-2.176l24.119,15.839a1.3,1.3,0,0,1,.586,1.088v26.031A1.3,1.3,0,0,1,61.423,388.474Z" transform="translate(94.809 -163.857)" fill="#464646"/><path d="M46.385,390.126a1.3,1.3,0,0,1-1.3-1.3V378.317a1.3,1.3,0,0,1,.72-1.166l8.12-4.059a1.3,1.3,0,0,1,1.163,2.33l-7.4,3.7v9.7A1.3,1.3,0,0,1,46.385,390.126Z" transform="translate(98.86 -150.942)" fill="#464646"/><path d="M16.33,393.649H5.624a1.3,1.3,0,0,1-1.3-1.3V370.186a1.3,1.3,0,0,1,.863-1.225l10.705-3.829a1.3,1.3,0,0,1,.878,2.453L6.926,371.1v19.943h9.4a1.3,1.3,0,1,1,0,2.6Z" transform="translate(80.677 -154.465)" fill="#464646"/><path d="M17.322,345.823a1.3,1.3,0,0,1-.47-2.516l28.9-11.2a1.3,1.3,0,0,1,.94,2.427l-28.9,11.2A1.312,1.312,0,0,1,17.322,345.823Z" transform="translate(85.895 -169.202)" fill="#464646"/><path d="M17.322,352.392a1.3,1.3,0,0,1-.47-2.516l28.9-11.2a1.3,1.3,0,0,1,.94,2.428l-28.9,11.2A1.312,1.312,0,0,1,17.322,352.392Z" transform="translate(85.895 -166.272)" fill="#464646"/><path d="M17.322,358.96a1.3,1.3,0,0,1-.47-2.516l28.9-11.2a1.3,1.3,0,1,1,.94,2.427l-28.9,11.2A1.312,1.312,0,0,1,17.322,358.96Z" transform="translate(85.895 -163.342)" fill="#464646"/><path d="M17.322,365.529a1.3,1.3,0,0,1-.47-2.516l28.9-11.2a1.3,1.3,0,0,1,.94,2.427l-28.9,11.2A1.312,1.312,0,0,1,17.322,365.529Z" transform="translate(85.895 -160.412)" fill="#464646"/><path d="M17.322,372.1a1.3,1.3,0,0,1-.47-2.515l28.9-11.2a1.3,1.3,0,0,1,.94,2.428l-28.9,11.2A1.313,1.313,0,0,1,17.322,372.1Z" transform="translate(85.895 -157.481)" fill="#464646"/><path d="M59.285,368.206a1.289,1.289,0,0,1-.714-.214L41.378,356.7a1.3,1.3,0,1,1,1.429-2.176L60,365.817a1.3,1.3,0,0,1-.716,2.389Z" transform="translate(96.945 -159.258)" fill="#464646"/><path d="M59.285,375.047a1.311,1.311,0,0,1-.714-.213L41.378,363.543a1.3,1.3,0,1,1,1.429-2.176L60,372.658a1.3,1.3,0,0,1-.716,2.389Z" transform="translate(96.945 -156.206)" fill="#464646"/><path d="M34.328,390.577a1.3,1.3,0,0,1-1.3-1.3V375.034l-10.771,3.487v10.755a1.3,1.3,0,1,1-2.6,0v-11.7a1.3,1.3,0,0,1,.9-1.239l13.372-4.328a1.3,1.3,0,0,1,1.7,1.239v16.03A1.3,1.3,0,0,1,34.328,390.577Z" transform="translate(87.516 -151.393)" fill="#464646"/><path d="M25.578,389.774a1.3,1.3,0,0,1-1.3-1.3V375.044a1.3,1.3,0,0,1,2.6,0v13.428A1.3,1.3,0,0,1,25.578,389.774Z" transform="translate(89.578 -150.59)" fill="#464646"/></g></svg>